<?xml version="1.0" ?><svg height="60px" version="1.1" viewBox="0 0 60 60" width="60px" xmlns="http://www.w3.org/2000/svg" xmlns:xlink="http://www.w3.org/1999/xlink"><title/><desc/><defs/><g fill="none" fill-rule="evenodd" id="Page-1" stroke="none" stroke-linecap="round" stroke-linejoin="round" stroke-width="1"><g id="005---Skip-Forward" stroke="#000000" stroke-width="2" transform="translate(1.000000, 1.000000)"><ellipse cx="29" cy="29" id="Oval" rx="29" ry="28.875"/><ellipse cx="29" cy="29" id="Oval" rx="25" ry="24.875"/><path d="M26,31.95 L18.09,37.43 C17.8757803,37.5754048 17.598675,37.5902895 17.370112,37.4686688 C17.141549,37.3470481 16.9990824,37.108905 17,36.85 L17,21.15 C16.9990824,20.891095 17.141549,20.6529519 17.370112,20.5313312 C17.598675,20.4097105 17.8757803,20.4245952 18.09,20.57 L26,26.05" id="Shape"/><path d="M37,30.56 L27.09,37.43 C26.8757803,37.5754048 26.598675,37.5902895 26.370112,37.4686688 C26.141549,37.3470481 25.9990824,37.108905 26,36.85 L26,21.15 C25.9990824,20.891095 26.141549,20.6529519 26.370112,20.5313312 C26.598675,20.4097105 26.8757803,20.4245952 27.09,20.57 L37,27.44" id="Shape"/><rect height="16" id="Rectangle-path" rx="1" width="4" x="37" y="21"/></g></g></svg>