<?xml version="1.0" ?><svg height="60px" version="1.1" viewBox="0 0 60 60" width="60px" xmlns="http://www.w3.org/2000/svg" xmlns:xlink="http://www.w3.org/1999/xlink"><title/><desc/><defs/><g fill="none" fill-rule="evenodd" id="Page-1" stroke="none" stroke-linecap="round" stroke-linejoin="round" stroke-width="1"><g id="013---Playlist" stroke="#000000" stroke-width="2" transform="translate(1.000000, 1.000000)"><ellipse cx="29" cy="29" id="Oval" rx="29" ry="28.875"/><ellipse cx="29" cy="29" id="Oval" rx="25" ry="24.875"/><path d="M14,19.90933 L14,30.09067 C13.9907072,30.4212904 14.1677322,30.7291581 14.4581482,30.8874448 C14.7485643,31.0457315 15.1032384,31.0276581 15.37606,30.84067 L22.61565,25.75 C22.8569589,25.5763745 22.9999918,25.2972507 22.9999918,24.99997 C22.9999918,24.7026893 22.8569589,24.4235655 22.61565,24.24994 L15.37606,19.1593 C15.1032339,18.9723083 14.7485528,18.9542373 14.4581344,19.1125317 C14.167716,19.270826 13.9906955,19.5787043 14,19.90933 Z" id="Shape"/><rect height="4" id="Rectangle-path" rx="2" width="17" x="27" y="19.05478"/><rect height="4" id="Rectangle-path" rx="2" width="17" x="27" y="27.05478"/><rect height="4" id="Rectangle-path" rx="2" width="30" x="14" y="35.05478"/></g></g></svg>