<?xml version="1.0" ?><svg height="60px" version="1.1" viewBox="0 0 60 60" width="60px" xmlns="http://www.w3.org/2000/svg" xmlns:xlink="http://www.w3.org/1999/xlink"><title/><desc/><defs/><g fill="none" fill-rule="evenodd" id="Page-1" stroke="none" stroke-linecap="round" stroke-linejoin="round" stroke-width="1"><g id="016---Volume" stroke="#000000" stroke-width="2" transform="translate(1.000000, 1.000000)"><ellipse cx="29" cy="29" id="Oval" rx="29" ry="28.875"/><ellipse cx="29" cy="29" id="Oval" rx="25" ry="24.875"/><path d="M19,25 L23,25 L23,33 L19,33 C17.8954305,33 17,32.1045695 17,31 L17,27 C17,25.8954305 17.8954305,25 19,25 Z" id="Shape"/><path d="M23,29 L23,25 L32.78058,17.47648 C33.3845113,17.0119184 34.1999413,16.9308669 34.8835048,17.2674551 C35.5670682,17.6040434 36.0000003,18.2997913 36,19.06173 L36,29" id="Shape"/><path d="M36,29 L36,38.93827 C36.0000003,39.7002087 35.5670682,40.3959566 34.8835048,40.7325449 C34.1999413,41.0691331 33.3845113,40.9880816 32.78058,40.52352 L23,33 L23,29" id="Shape"/></g></g></svg>